# xmcd CD database file
#
# Track frame offsets:
#	182
#	14942
#	28482
#	47017
#	61540
#	71637
#	81417
#	98230
#	114082
#	126560
#	137005
#	151572
#
# Disc length: 2185 seconds
#
# Revision: 0
# Processed by: cddbd v1.4PL0 Copyright (c) Steve Scherf et al.
# Submitted via: CDex 1.51
#
DISCID=a208870c
DTITLE=Tito Puente - The Best of The 60's
DYEAR=1988
DGENRE=Salsa
TTITLE0=Vete Pa' La Luna
TTITLE1=Fat Mama
TTITLE2=Ay Carino
TTITLE3=Ran Kan Kan
TTITLE4=Fancy Feet
TTITLE5=Timbalito
TTITLE6=Babarabatiri
TTITLE7=Cuando Caliente El Sol
TTITLE8=TPs Shing-A-Ling
TTITLE9=Caramelos
TTITLE10=A Noro Morales
TTITLE11=Azukiki
EXTD=YEAR: 1988
EXTT0=
EXTT1=
EXTT2=
EXTT3=
EXTT4=
EXTT5=
EXTT6=
EXTT7=
EXTT8=
EXTT9=
EXTT10=
EXTT11=
PLAYORDER=
